<?xml version="1.0" encoding="UTF-8" standalone="no"?>
<!DOCTYPE svg  PUBLIC '-//W3C//DTD SVG 1.1//EN'  'http://www.w3.org/Graphics/SVG/1.1/DTD/svg11.dtd'>
<svg version="1.1" xmlns="http://www.w3.org/2000/svg">
<defs>
<font id="AvenirNextLTPro-MediumCn" horiz-adv-x="482">
<font-face descent="-200" panose-1="2 11 6 6 2 2 2 2 2 4" font-weight="500" x-height="502" underline-position="-150" unicode-range="U+000D-FB02" underline-thickness="50" bbox="-28 -250 751 955" ascent="800" cap-height="708" font-family="AvenirNext LT Pro MediumCn" units-per-em="1000"/>
<missing-glyph/>
<glyph glyph-name="space" horiz-adv-x="190" unicode=" "/>
<glyph glyph-name="exclam" horiz-adv-x="302" unicode="!" d="M208 53q0 -25 -16.5 -42.5t-40.5 -17.5t-40 17t-16 43q0 25 16 43t40 18t40.5 -18t16.5 -43zM194 218h-86v490h86v-490z"/>
<glyph glyph-name="quotedbl" horiz-adv-x="355" unicode='&quot;' d="M145 457h-67v251h67v-251zM277 457h-67v251h67v-251z"/>
<glyph glyph-name="numbersign" horiz-adv-x="388" unicode="#" d="M235 425h-68l-12 -141h67zM362 425h-69l-13 -141h57v-67h-63l-19 -217h-58l19 217h-67l-20 -217h-58l18 217h-62v67h69l14 141h-64v67h69l19 216h59l-19 -216h67l20 216h58l-20 -216h63v-67z"/>
<glyph glyph-name="dollar" unicode="$" d="M341 192q0 48 -20.5 73t-58.5 43v-231q34 3 56.5 33.5t22.5 81.5zM216 412v218q-31 -4 -52.5 -32.5t-21.5 -74.5t18.5 -69.5t55.5 -41.5zM259 1v-81h-43v81q-44 2 -89.5 21t-74.5 49l47 65q51 -57 117 -59v245q-74 29 -113 70.5t-39 121.5q0 83 43.5 134.5t111.5 57.5v80 h43v-79q97 -2 153 -65l-44 -63q-41 53 -109 53v-236q39 -16 62.5 -29.5t49 -36t37.5 -55.5t12 -77q0 -87 -45.5 -140.5t-118.5 -56.5z"/>
<glyph glyph-name="percent" horiz-adv-x="660" unicode="%" d="M500 719l-283 -742l-54 18l283 742zM561 174q0 53 -16 86.5t-45 33.5t-45 -33.5t-16 -86.5q0 -52 16 -86t45 -34t45 34t16 86zM632 173q0 -81 -35.5 -132t-96.5 -51t-96.5 51t-35.5 132q0 82 35.5 133.5t96.5 51.5t96.5 -51.5t35.5 -133.5zM223 538q0 53 -16 86.5 t-45 33.5t-45 -33.5t-16 -86.5q0 -52 16 -86t45 -34t45 34t16 86zM294 537q0 -81 -35.5 -132t-96.5 -51t-96.5 51t-35.5 132q0 82 35.5 133.5t96.5 51.5t96.5 -51.5t35.5 -133.5z"/>
<glyph glyph-name="ampersand" horiz-adv-x="535" unicode="&amp;" d="M323 152l-123 183q-77 -51 -77 -140q0 -61 27.5 -97t71.5 -36q36 0 61.5 26t39.5 64zM321 563q0 43 -17 68.5t-47 25.5q-31 0 -50.5 -28t-19.5 -71q0 -62 44 -129q90 59 90 134zM532 0h-105l-58 87q-50 -103 -155 -103q-80 0 -127 54t-47 150q0 130 120 206 q-57 84 -57 162t43.5 124.5t110.5 46.5q64 0 104.5 -43t40.5 -115q0 -64 -35.5 -108t-99.5 -85l100 -147l59 153h88l-96 -218z"/>
<glyph glyph-name="quotesingle" horiz-adv-x="223" unicode="&apos;" d="M145 457h-67v251h67v-251z"/>
<glyph glyph-name="parenleft" horiz-adv-x="256" unicode="(" d="M207 -137l-64 -30q-57 93 -88 213.5t-31 241.5t31 241.5t88 213.5l64 -30q-52 -85 -81 -199.5t-29 -225.5t29 -225.5t81 -199.5z"/>
<glyph glyph-name="parenright" horiz-adv-x="256" unicode=")" d="M49 -137q52 85 81 199.5t29 225.5t-29 225.5t-81 199.5l64 30q57 -93 88 -213.5t31 -241.5t-31 -241.5t-88 -213.5z"/>
<glyph glyph-name="asterisk" horiz-adv-x="435" unicode="*" d="M398 545l-127 -42l80 -121l-55 -40l-79 123l-78 -120l-56 39l81 119l-128 45l22 61l125 -46v145h69v-145l125 44z"/>
<glyph glyph-name="plus" horiz-adv-x="666" unicode="+" d="M374 566v-222h222v-82h-222v-222h-82v222h-222v82h222v222h82z"/>
<glyph glyph-name="comma" horiz-adv-x="228" unicode="," d="M174 128l-72 -256h-69l58 256h83z"/>
<glyph glyph-name="hyphen" horiz-adv-x="230" unicode="-" d="M194 231h-158v69h158v-69z"/>
<glyph glyph-name="period" horiz-adv-x="228" unicode="." d="M171 53q0 -25 -16.5 -42.5t-40.5 -17.5t-40 17t-16 43q0 25 16 43t40 18t40.5 -18t16.5 -43z"/>
<glyph glyph-name="slash" horiz-adv-x="250" unicode="/" d="M243 747l-179 -781l-58 12l180 781z"/>
<glyph glyph-name="zero" unicode="0" d="M350 354q0 287 -109 287t-109 -287t109 -287t109 287zM442 354q0 -69 -8.5 -128t-29.5 -116t-62.5 -90t-100.5 -33t-100.5 33t-62.5 90t-29.5 116t-8.5 128t8.5 128t29.5 116t62.5 90t100.5 33t100.5 -33t62.5 -90t29.5 -116t8.5 -128z"/>
<glyph glyph-name="one" unicode="1" d="M325 0h-88v605l-126 -96l-42 70l173 129h83v-708z"/>
<glyph glyph-name="two" unicode="2" d="M413 530q0 -42 -16.5 -85.5t-34 -71t-57.5 -81.5l-156 -213h255v-79h-354v83l198 269q73 98 73 173q0 51 -23 84.5t-67 33.5q-40 0 -66 -27.5t-34 -79.5l-85 9q13 85 63.5 130.5t127.5 45.5q83 0 129.5 -53.5t46.5 -137.5z"/>
<glyph glyph-name="three" unicode="3" d="M424 196q0 -89 -53 -149t-142 -60q-74 0 -124.5 37.5t-70.5 107.5l80 22q12 -41 41 -65.5t70 -24.5q54 0 83 41.5t29 93.5q0 64 -35 99t-94 35h-25v72h27q51 0 81 33.5t30 91.5q0 45 -24.5 80t-71.5 35q-61 0 -90 -69l-78 24q22 60 70 90.5t104 30.5q78 0 127 -50 t49 -131q0 -61 -28 -108t-79 -59v-2q56 -13 90 -60.5t34 -114.5z"/>
<glyph glyph-name="four" unicode="4" d="M286 239v382h-2l-173 -382h175zM449 163h-84v-163h-81v163h-255v81l221 464h115v-469h84v-76z"/>
<glyph glyph-name="five" unicode="5" d="M422 226q0 -112 -53.5 -175.5t-139.5 -63.5q-69 0 -116.5 36t-67.5 103l77 26q31 -86 105 -86q49 0 78.5 43t29.5 114q0 72 -32.5 113.5t-90.5 41.5q-67 0 -123 -33l10 363h299v-79h-222l-8 -198q36 17 73 17q88 0 134.5 -60t46.5 -162z"/>
<glyph glyph-name="six" unicode="6" d="M350 223q0 70 -27.5 112.5t-79.5 42.5q-51 0 -81.5 -44.5t-30.5 -112.5q0 -73 29.5 -115.5t80.5 -42.5q52 0 80.5 43.5t28.5 116.5zM440 222q0 -108 -55 -171.5t-145 -63.5q-91 0 -145 63.5t-54 170.5q0 94 53 200l144 287h97l-150 -289l1 -1q30 29 79 29q30 0 59 -11 t56 -34.5t43.5 -70t16.5 -109.5z"/>
<glyph glyph-name="seven" unicode="7" d="M415 635l-223 -635h-96l228 628h-271v80h362v-73z"/>
<glyph glyph-name="eight" unicode="8" d="M348 198q0 62 -29.5 101.5t-76.5 39.5q-46 0 -75.5 -39.5t-29.5 -101.5q0 -61 28.5 -100t76.5 -39q49 0 77.5 39t28.5 100zM334 532q0 54 -24.5 87.5t-67.5 33.5t-67 -33.5t-24 -87.5q0 -51 25 -87t66 -36t66.5 36t25.5 87zM440 194q0 -93 -53.5 -150t-144.5 -57 q-90 0 -143 57t-53 150q0 70 30.5 117t83.5 65v2q-97 41 -97 160q0 78 47 130.5t132 52.5q86 0 133.5 -52.5t47.5 -130.5q0 -120 -96 -160v-2q113 -41 113 -182z"/>
<glyph glyph-name="nine" unicode="9" d="M133 490q0 -67 27.5 -108.5t79.5 -41.5q51 0 81.5 43t30.5 109q0 69 -29.5 111t-80.5 42t-80 -43t-29 -112zM43 488q0 105 55.5 169t144.5 64q92 0 145.5 -62.5t53.5 -169.5q0 -96 -53 -202l-144 -287h-97l156 296l-1 1q-34 -28 -86 -28q-30 0 -58.5 11t-55.5 34.5 t-43.5 68t-16.5 105.5z"/>
<glyph glyph-name="colon" horiz-adv-x="268" unicode=":" d="M186 57q0 -25 -15 -41t-37 -16q-23 0 -37.5 16t-14.5 41q0 23 15 39.5t37 16.5t37 -16.5t15 -39.5zM186 446q0 -25 -15 -41t-37 -16q-23 0 -37.5 16t-14.5 41q0 23 15 39.5t37 16.5t37 -16.5t15 -39.5z"/>
<glyph glyph-name="semicolon" horiz-adv-x="254" unicode=";" d="M182 128l-72 -256h-65l58 256h79zM186 446q0 -25 -15 -41t-37 -16q-23 0 -37.5 16t-14.5 41q0 23 15 39.5t37 16.5t37 -16.5t15 -39.5z"/>
<glyph glyph-name="less" horiz-adv-x="666" unicode="&lt;" d="M589 564v-85l-385 -176l383 -176v-85l-508 231v60z"/>
<glyph glyph-name="equal" horiz-adv-x="666" unicode="=" d="M70 261h526v-81h-526v81zM70 426h526v-81h-526v81z"/>
<glyph glyph-name="greater" horiz-adv-x="666" unicode="&gt;" d="M79 479v85l508 -231v-60l-508 -231v85l383 176z"/>
<glyph glyph-name="question" horiz-adv-x="381" unicode="?" d="M247 53q0 -25 -16.5 -42.5t-40.5 -17.5t-40 17t-16 43q0 25 16 43t40 18t40.5 -18t16.5 -43zM224 254v-36h-77v47q0 88 61 148l21 24q46 53 46 104q0 50 -22 78.5t-61 28.5t-63 -30.5t-31 -74.5l-74 15q13 75 57.5 120.5t118.5 45.5q73 0 117 -46.5t44 -129.5 q0 -56 -21.5 -93.5t-63.5 -78.5q-31 -33 -41.5 -58.5t-10.5 -63.5z"/>
<glyph glyph-name="at" horiz-adv-x="640" unicode="@" d="M385 406q0 86 -52 86q-39 0 -62 -55t-23 -123q0 -88 55 -88q38 0 60 62t22 118zM605 406q0 -106 -42.5 -176t-112.5 -70q-33 0 -52 18.5t-19 54.5h-1q-34 -73 -94 -73q-51 0 -78.5 44.5t-27.5 111.5q0 95 39 168.5t107 73.5q33 0 52.5 -19.5t23.5 -49.5h3l10 45h63 l-33 -164q-11 -70 -11 -99q0 -43 31 -44h2q35 0 57.5 51.5t22.5 126.5q0 121 -55.5 192t-156.5 71q-103 0 -167.5 -92t-64.5 -223q0 -137 63 -224t174 -87q109 0 186 89l36 -51q-91 -99 -227 -99q-141 0 -219 103t-78 269q0 160 82.5 267t214.5 107q129 0 200.5 -85 t71.5 -236z"/>
<glyph glyph-name="A" horiz-adv-x="487" unicode="A" d="M333 237l-87 387h-4l-90 -387h181zM479 0h-94l-40 166h-205l-41 -166h-91l178 708h119z"/>
<glyph glyph-name="B" horiz-adv-x="500" unicode="B" d="M340 374v-2q46 -9 83.5 -54t37.5 -123q0 -100 -58.5 -147.5t-133.5 -47.5h-191v708h170q34 0 64.5 -8t60 -26.5t47 -54.5t17.5 -86q0 -64 -27.5 -103.5t-69.5 -55.5zM372 201q0 67 -38 99.5t-88 32.5h-83v-257h87q54 0 88 31.5t34 93.5zM353 519q0 59 -33 86t-82 27h-75 v-228h77q46 0 79.5 28.5t33.5 86.5z"/>
<glyph glyph-name="C" horiz-adv-x="486" unicode="C" d="M469 76q-60 -93 -171 -93q-116 0 -183.5 104t-67.5 267t68.5 267t182.5 104q115 0 173 -85l-56 -61q-42 63 -113 63q-78 0 -119 -81.5t-41 -206.5q0 -124 42 -206t120 -82q70 0 111 69z"/>
<glyph glyph-name="D" horiz-adv-x="553" unicode="D" d="M416 353q0 135 -48.5 205.5t-127.5 70.5h-73v-550h73q78 0 127 70.5t49 203.5zM506 353q0 -170 -70 -261.5t-196 -91.5h-162v708h163q126 0 195.5 -92t69.5 -263z"/>
<glyph glyph-name="E" horiz-adv-x="426" unicode="E" d="M386 0h-308v708h298v-80h-211v-223h197v-75h-197v-249h221v-81z"/>
<glyph glyph-name="F" horiz-adv-x="405" unicode="F" d="M375 626h-208v-228h193v-78h-193v-320h-89v708h297v-82z"/>
<glyph glyph-name="G" horiz-adv-x="541" unicode="G" d="M297 725q116 0 174 -85l-56 -61q-43 64 -114 64q-77 0 -118 -82t-41 -206q0 -128 43 -207.5t123 -79.5q56 0 85 24v219h-93v78h180v-345q-69 -57 -174 -57q-120 0 -189.5 100.5t-69.5 267.5q0 163 67.5 266.5t182.5 103.5z"/>
<glyph glyph-name="H" horiz-adv-x="583" unicode="H" d="M505 0h-90v327h-247v-327h-90v708h90v-301h247v301h90v-708z"/>
<glyph glyph-name="I" horiz-adv-x="246" unicode="I" d="M168 0h-90v708h90v-708z"/>
<glyph glyph-name="J" horiz-adv-x="395" unicode="J" d="M323 195q0 -103 -42.5 -157.5t-126.5 -54.5q-63 0 -104 33.5t-56 92.5l79 33q8 -32 28.5 -54t51.5 -22q80 0 80 138v504h90v-513z"/>
<glyph glyph-name="K" horiz-adv-x="499" unicode="K" d="M491 0h-107l-216 355h-2v-355h-88v708h88v-315h2l204 315h104l-226 -328z"/>
<glyph glyph-name="L" horiz-adv-x="373" unicode="L" d="M368 0h-290v708h90v-624h200v-84z"/>
<glyph glyph-name="M" horiz-adv-x="729" unicode="M" d="M651 0h-89v586h-3l-158 -586h-81l-156 586h-3v-586h-83v708h132l151 -562h4l148 562h138v-708z"/>
<glyph glyph-name="N" horiz-adv-x="573" unicode="N" d="M495 0h-105l-226 549h-3v-549h-83v708h108l223 -550h3v550h83v-708z"/>
<glyph glyph-name="O" horiz-adv-x="579" unicode="O" d="M437 355q0 126 -38.5 207.5t-108.5 81.5q-71 0 -109.5 -81t-38.5 -208t38.5 -208t109.5 -81q70 0 108.5 81.5t38.5 207.5zM532 355q0 -168 -65 -270t-177 -102q-113 0 -178 102t-65 270q0 169 64 269.5t179 100.5q112 0 177 -101t65 -269z"/>
<glyph glyph-name="P" horiz-adv-x="475" unicode="P" d="M356 508q0 62 -29 92.5t-79 30.5h-81v-253h81q49 0 78.5 33.5t29.5 96.5zM445 509q0 -98 -53 -152t-129 -54h-96v-303h-89v708h179q35 0 66 -10t59.5 -31.5t45.5 -62t17 -95.5z"/>
<glyph glyph-name="Q" horiz-adv-x="584" unicode="Q" d="M439 360q0 120 -39.5 199t-108.5 79t-109 -78.5t-40 -199.5q0 -120 40.5 -199t109.5 -79t108 80.5t39 197.5zM560 0h-272q-109 0 -175 97t-66 263q0 164 67 264.5t177 100.5t176.5 -100.5t66.5 -261.5q0 -92 -32 -173.5t-78 -108.5v-3h136v-78z"/>
<glyph glyph-name="R" horiz-adv-x="492" unicode="R" d="M362 511q0 65 -32.5 93t-82.5 28h-81v-246h83q52 0 82.5 33t30.5 92zM464 0h-96l-120 316h-82v-316h-88v708h183q84 0 137 -47t53 -146q0 -79 -36 -125.5t-83 -56.5z"/>
<glyph glyph-name="S" horiz-adv-x="440" unicode="S" d="M398 188q0 -94 -54 -149.5t-137 -55.5q-53 0 -101.5 22.5t-78.5 59.5l53 65q50 -64 127 -64q46 0 74.5 31t28.5 86q0 49 -29.5 80.5t-85.5 59.5q-68 34 -105.5 78.5t-37.5 122.5q0 97 55.5 149t132.5 52q105 0 159 -68l-54 -64q-38 50 -102 50q-43 0 -73.5 -29.5 t-30.5 -87.5q0 -48 27 -77t79 -56q70 -35 111.5 -81t41.5 -124z"/>
<glyph glyph-name="T" horiz-adv-x="359" unicode="T" d="M359 631h-135v-631h-89v631h-135v77h359v-77z"/>
<glyph glyph-name="U" horiz-adv-x="557" unicode="U" d="M489 243q0 -117 -50.5 -188.5t-161.5 -71.5q-110 0 -159.5 71.5t-49.5 188.5v465h90v-456q0 -186 121 -186q120 0 120 186v456h90v-465z"/>
<glyph glyph-name="V" horiz-adv-x="477" unicode="V" d="M472 708l-177 -708h-116l-174 708h99l135 -604h2l135 604h96z"/>
<glyph glyph-name="W" horiz-adv-x="744" unicode="W" d="M732 708l-137 -708h-115l-106 573h-2l-106 -573h-115l-136 708h92l104 -590h3l109 590h105l111 -590h2l103 590h88z"/>
<glyph glyph-name="X" horiz-adv-x="469" unicode="X" d="M118 708l118 -264l116 264h93l-161 -335l180 -373h-98l-133 298l-133 -298h-95l179 374l-161 334h95z"/>
<glyph glyph-name="Y" horiz-adv-x="437" unicode="Y" d="M440 708l-178 -425v-283h-89v283l-176 425h98l123 -333l126 333h96z"/>
<glyph glyph-name="Z" horiz-adv-x="411" unicode="Z" d="M374 0h-349v76l253 552h-238v80h334v-76l-251 -550h251v-82z"/>
<glyph glyph-name="bracketleft" horiz-adv-x="254" unicode="[" d="M205 -156h-166v888h166v-63h-90v-762h90v-63z"/>
<glyph glyph-name="backslash" horiz-adv-x="250" unicode="\" d="M7 747l57 12l180 -781l-58 -12z"/>
<glyph glyph-name="bracketright" horiz-adv-x="254" unicode="]" d="M52 -156v63h90v762h-90v63h165v-888h-165z"/>
<glyph glyph-name="asciicircum" horiz-adv-x="666" unicode="^" d="M74 309l226 399h66l226 -399h-91l-169 300l-167 -300h-91z"/>
<glyph glyph-name="underscore" horiz-adv-x="500" unicode="_" d="M0 -138v63h500v-63h-500z"/>
<glyph glyph-name="grave" horiz-adv-x="235" unicode="`" d="M174 571h-67l-107 144h84z"/>
<glyph glyph-name="a" horiz-adv-x="415" unicode="a" d="M276 218v29h-37q-121 0 -121 -102q0 -43 19 -66t47 -23q47 0 69.5 50t22.5 112zM359 0h-70q-8 48 -8 83h-2q-22 -96 -118 -96q-49 0 -86 37.5t-37 111.5q0 42 13 74t33 51t48 31t54 16t55 4h33v22q0 112 -83 112q-56 0 -93 -51l-43 53q24 33 64 52t80 19q83 0 118 -53 t35 -158v-203q0 -63 7 -105z"/>
<glyph glyph-name="b" horiz-adv-x="480" unicode="b" d="M156 251q0 -85 25 -139t72 -54t70.5 53.5t23.5 139.5q0 87 -23.5 140.5t-70.5 53.5q-46 0 -71.5 -54.5t-25.5 -139.5zM73 0v756h85v-326h2q12 40 42.5 64.5t72.5 24.5q77 0 118.5 -72.5t41.5 -192.5t-42.5 -195.5t-117.5 -75.5q-89 0 -117 96h-2v-79h-83z"/>
<glyph glyph-name="c" horiz-adv-x="344" unicode="c" d="M339 29q-41 -46 -113 -46q-88 0 -134.5 72.5t-46.5 195.5q0 122 47.5 195t134.5 73q68 0 111 -43l-43 -64q-28 31 -67 31q-46 0 -70.5 -52.5t-24.5 -139.5q0 -189 100 -189q42 0 68 33z"/>
<glyph glyph-name="d" horiz-adv-x="480" unicode="d" d="M324 251q0 85 -25.5 139.5t-71.5 54.5q-47 0 -70.5 -53.5t-23.5 -140.5q0 -86 23.5 -139.5t70.5 -53.5t72 54t25 139zM407 0h-83v79h-2q-28 -96 -117 -96q-75 0 -117.5 75.5t-42.5 195.5t41.5 192.5t118.5 72.5q42 0 72.5 -24.5t42.5 -64.5h2v326h85v-756z"/>
<glyph glyph-name="e" horiz-adv-x="439" unicode="e" d="M311 298q0 68 -21.5 107.5t-63.5 39.5q-32 0 -54 -26.5t-30.5 -58t-8.5 -62.5h178zM397 229h-266q1 -75 27 -122.5t74 -47.5q56 0 86 71l64 -37q-45 -110 -153 -110q-86 0 -135 71t-49 196q0 120 50.5 194.5t132.5 74.5q87 0 128 -68t41 -181v-41z"/>
<glyph glyph-name="f" horiz-adv-x="250" unicode="f" d="M264 767l-6 -70q-13 5 -29 5q-67 0 -67 -109v-91h82v-69h-81v-433h-84v433h-65v69h65v92q0 82 35 131t105 49q27 0 45 -7z"/>
<glyph glyph-name="g" horiz-adv-x="480" unicode="g" d="M324 430v72h83v-502q0 -240 -190 -240q-50 0 -96 21.5t-75 57.5l53 60q50 -62 121 -62q104 0 104 163v79h-2q-28 -96 -117 -96q-75 0 -117.5 75.5t-42.5 195.5t41.5 192.5t118.5 72.5q43 0 73.5 -24.5t42.5 -64.5h3zM324 251q0 85 -25.5 139.5t-71.5 54.5 q-47 0 -70.5 -53.5t-23.5 -140.5q0 -86 23.5 -139.5t70.5 -53.5t72 54t25 139z"/>
<glyph glyph-name="h" unicode="h" d="M159 288v-288h-86v756h86v-339h2q13 44 46 73t78 29q39 0 65.5 -16.5t39.5 -46.5t18 -62.5t5 -73.5v-320h-86v320q0 123 -71 123q-43 0 -70 -43.5t-27 -111.5z"/>
<glyph glyph-name="i" horiz-adv-x="232" unicode="i" d="M158 0h-85v502h85v-502zM169 651q0 -24 -15.5 -40.5t-37.5 -16.5q-23 0 -38 16t-15 41q0 24 15.5 40.5t37.5 16.5t37.5 -16.5t15.5 -40.5z"/>
<glyph glyph-name="j" horiz-adv-x="233" unicode="j" d="M160 -62q0 -178 -143 -178q-17 0 -40 5l7 78q12 -4 27 -4q64 0 64 105v558h85v-564zM170 651q0 -25 -15 -41t-38 -16t-37.5 16t-14.5 41q0 24 15 40.5t37 16.5t37.5 -16.5t15.5 -40.5z"/>
<glyph glyph-name="k" horiz-adv-x="421" unicode="k" d="M416 0h-101l-155 248h-2v-248h-85v756h85v-472h2l147 218h100l-172 -232z"/>
<glyph glyph-name="l" horiz-adv-x="232" unicode="l" d="M159 0h-86v756h86v-756z"/>
<glyph glyph-name="m" horiz-adv-x="729" unicode="m" d="M160 415q12 46 44.5 75t79.5 29q90 0 114 -104h2q16 43 49 73.5t83 30.5q39 0 65.5 -16.5t39.5 -46.5t18 -62.5t5 -73.5v-320h-86v320q0 123 -71 123q-42 0 -68.5 -43.5t-26.5 -111.5v-288h-84v320q0 123 -71 123q-42 0 -68 -43.5t-26 -111.5v-288h-84v375q0 78 -4 127 h81q6 -50 6 -87h2z"/>
<glyph glyph-name="n" horiz-adv-x="483" unicode="n" d="M414 0h-86v320q0 123 -71 123q-43 0 -70 -43.5t-27 -111.5v-288h-85v375q0 78 -4 127h81q6 -50 6 -87h2q15 46 48 75t78 29q39 0 65.5 -16.5t39.5 -46.5t18 -62.5t5 -73.5v-320z"/>
<glyph glyph-name="o" horiz-adv-x="455" unicode="o" d="M322 251q0 87 -24 140.5t-71 53.5t-70.5 -53.5t-23.5 -140.5q0 -86 23.5 -139.5t70.5 -53.5t71 53t24 140zM410 250q0 -121 -49 -194t-134 -73q-84 0 -133 73.5t-49 193.5q0 122 48.5 195.5t133.5 73.5t134 -73.5t49 -195.5z"/>
<glyph glyph-name="p" horiz-adv-x="480" unicode="p" d="M156 252q0 -85 25.5 -139.5t71.5 -54.5q47 0 70.5 53.5t23.5 140.5q0 86 -23.5 139.5t-70.5 53.5t-72 -54t-25 -139zM73 502h83v-78h2q28 95 117 95q75 0 117.5 -75t42.5 -195t-41.5 -193t-118.5 -73q-42 0 -72.5 25t-42.5 65h-2v-313h-85v742z"/>
<glyph glyph-name="q" horiz-adv-x="480" unicode="q" d="M324 252q0 85 -25 139t-72 54t-70.5 -53.5t-23.5 -139.5q0 -87 23.5 -140.5t70.5 -53.5q46 0 71.5 54.5t25.5 139.5zM407 502v-742h-85v313h-2q-12 -40 -42.5 -65t-72.5 -25q-77 0 -118.5 73t-41.5 193t42.5 195t117.5 75q89 0 117 -95h2v78h83z"/>
<glyph glyph-name="r" horiz-adv-x="285" unicode="r" d="M160 398q12 60 41 90.5t68 30.5q8 0 12 -1l-4 -89q-10 2 -17 2q-45 0 -72 -53.5t-27 -123.5v-254h-86v375q0 78 -4 127h81q6 -50 6 -104h2z"/>
<glyph glyph-name="s" horiz-adv-x="353" unicode="s" d="M321 463l-49 -56q-30 44 -82 44q-29 0 -48 -21t-19 -55q0 -33 17.5 -49t61.5 -33q115 -43 115 -150q0 -76 -42.5 -118t-110.5 -42q-89 0 -144 68l50 55q41 -52 97 -52q32 0 50.5 23t18.5 60q0 39 -22 58t-68 36q-48 18 -76 49t-28 92q0 65 42.5 106t105.5 41 q83 0 131 -56z"/>
<glyph glyph-name="t" horiz-adv-x="264" unicode="t" d="M252 1q-26 -14 -65 -14q-107 0 -107 140v306h-64v69h63v134h83v-134h89v-69h-89v-289q0 -83 52 -83q18 0 36 8z"/>
<glyph glyph-name="u" horiz-adv-x="483" unicode="u" d="M69 502h86v-320q0 -123 71 -123q43 0 70 43.5t27 111.5v288h85v-375q0 -78 4 -127h-81q-6 50 -6 87h-2q-15 -46 -48 -75t-78 -29q-39 0 -65.5 16.5t-39.5 46.5t-18 62.5t-5 73.5v320z"/>
<glyph glyph-name="v" horiz-adv-x="396" unicode="v" d="M382 502l-133 -502h-100l-135 502h90l96 -412h2l92 412h88z"/>
<glyph glyph-name="w" horiz-adv-x="600" unicode="w" d="M580 502l-107 -502h-98l-77 380h-1l-78 -380h-95l-104 502h87l70 -404h2l81 404h79l83 -404h1l71 404h86z"/>
<glyph glyph-name="x" horiz-adv-x="392" unicode="x" d="M14 0l133 264l-122 238h94l78 -175l77 175h91l-121 -237l134 -265h-95l-88 196l-89 -196h-92z"/>
<glyph glyph-name="y" horiz-adv-x="396" unicode="y" d="M382 502l-155 -593q-20 -74 -51.5 -111.5t-90.5 -37.5q-33 0 -59 8l11 77q19 -7 40 -7q27 0 42 17t24 51l19 79l-148 517h90l99 -402h2l90 402h87z"/>
<glyph glyph-name="z" horiz-adv-x="347" unicode="z" d="M318 0h-292v73l202 356h-187v73h276v-71l-202 -358h203v-73z"/>
<glyph glyph-name="braceleft" horiz-adv-x="254" unicode="{" d="M212 -156h-54q-104 0 -104 145v169q0 55 -14 75.5t-40 20.5v68q26 0 40 20.5t14 75.5v169q0 145 104 145h54v-63h-34q-52 0 -52 -86v-177q0 -55 -18.5 -83.5t-44.5 -33.5v-2q26 -5 44.5 -33.5t18.5 -83.5v-177q0 -86 52 -86h34v-63z"/>
<glyph glyph-name="bar" horiz-adv-x="222" unicode="|" d="M70 750h82v-1000h-82v1000z"/>
<glyph glyph-name="braceright" horiz-adv-x="254" unicode="}" d="M44 -156v63h34q52 0 52 86v177q0 55 18.5 83.5t44.5 33.5v2q-26 5 -44.5 33.5t-18.5 83.5v177q0 86 -52 86h-34v63h54q104 0 104 -145v-169q0 -54 14 -75t40 -21v-68q-26 0 -40 -21t-14 -75v-169q0 -145 -104 -145h-54z"/>
<glyph glyph-name="asciitilde" horiz-adv-x="666" unicode="~" d="M340 346q38 -24 57.5 -31.5t41.5 -7.5q50 0 87 68l59 -55q-58 -97 -144 -97q-54 0 -116 38q-37 23 -56.5 30.5t-41.5 7.5q-50 0 -87 -68l-59 55q59 98 144 98q56 0 115 -38z"/>
<glyph glyph-name="uni00A0" horiz-adv-x="190" unicode=" "/>
<glyph glyph-name="exclamdown" horiz-adv-x="302" unicode="¡" d="M208 462q0 -25 -16.5 -43t-40.5 -18t-40 18t-16 43q0 26 16 43t40 17t40.5 -17.5t16.5 -42.5zM194 297v-490h-86v490h86z"/>
<glyph glyph-name="cent" unicode="¢" d="M244 58v381q-44 -5 -66 -59t-22 -133t21.5 -131.5t66.5 -57.5zM396 43q-38 -51 -109 -54v-61h-44v61q-81 5 -125 76.5t-44 183.5t44 183.5t125 78.5v66h44v-66q70 -3 111 -47l-38 -59q-26 30 -73 34v-380q43 1 75 40z"/>
<glyph glyph-name="sterling" unicode="£" d="M217 401h130v-69h-130v-251h197v-81h-376v81h92v251h-85v69h85v102q0 93 48 158.5t141 65.5q75 0 123 -44l-48 -65q-27 29 -72 29q-105 0 -105 -153v-93z"/>
<glyph glyph-name="currency" horiz-adv-x="890" unicode="¤" d="M446 478q-72 0 -117.5 -49t-45.5 -120q0 -72 45 -121.5t118 -49.5t118.5 49.5t45.5 121.5q0 71 -45.5 120t-118.5 49zM661 465q48 -63 48 -156q0 -95 -51 -161l93 -93q-27 -29 -56 -56q-32 30 -96 94q-64 -47 -153 -47q-86 0 -154 49q-34 -34 -98 -96l-56 56 q16 16 47.5 48t47.5 48q-49 65 -49 158q0 87 46 154l-92 92q10 9 29 28l28 28q31 -30 93 -92q67 50 158 50t157 -49q13 14 28.5 29t34 33.5l28.5 28.5q19 -18 57 -56z"/>
<glyph glyph-name="yen" unicode="¥" d="M316 393h108v-60h-142v-103h142v-60h-142v-170h-85v170h-141v60h141v103h-141v61h111l-143 314h90l128 -311l128 311h88z"/>
<glyph glyph-name="brokenbar" horiz-adv-x="222" unicode="¦" d="M70 175h82v-350h-82v350zM70 675h82v-350h-82v350z"/>
<glyph glyph-name="section" horiz-adv-x="488" unicode="§" d="M183 144q-66 27 -95.5 61.5t-29.5 96.5q0 52 30 87.5t70 48.5q-38 23 -57 51t-19 75q0 72 51 118t128 46q107 0 157 -73l-52 -49q-31 52 -104 52q-41 0 -70.5 -24.5t-29.5 -70.5q0 -20 6.5 -35t23.5 -27.5t30.5 -19.5t41.5 -20l30 -14q67 -32 99.5 -68.5t32.5 -93.5 q0 -53 -29 -87.5t-72 -46.5q79 -42 79 -124q0 -83 -54 -125.5t-128 -42.5q-115 0 -177 76l48 57q51 -62 129 -62q43 0 72 23.5t29 67.5q0 39 -25 62t-80 46zM352 280q0 20 -7 36t-22 28t-28.5 20t-37.5 19l-43 20q-33 -6 -57 -30.5t-24 -64.5q0 -41 22.5 -62.5t67.5 -39.5 l47 -20q34 5 58 29t24 65z"/>
<glyph glyph-name="dieresis" horiz-adv-x="235" unicode="¨" d="M90 650q0 -22 -14.5 -37t-34.5 -15q-22 0 -35 14.5t-13 37.5q0 22 13.5 37.5t34.5 15.5q20 0 34.5 -15.5t14.5 -37.5zM243 650q0 -22 -14 -37t-34 -15t-34.5 15t-14.5 37t14.5 37.5t34.5 15.5q21 0 34.5 -15.5t13.5 -37.5z"/>
<glyph glyph-name="copyright" horiz-adv-x="640" unicode="©" d="M320 686q-106 0 -169 -92.5t-63 -238.5t63 -238.5t169 -92.5t169 92.5t63 238.5t-63 238.5t-169 92.5zM320 -20q-127 0 -205.5 102t-78.5 273t78.5 273t205.5 102t205.5 -102t78.5 -273t-78.5 -273t-205.5 -102zM393 241l44 -51q-37 -61 -105 -61q-71 0 -113 62.5 t-42 165.5q0 104 41 166t112 62q72 0 106 -56l-43 -52q-19 38 -63 38q-38 0 -58 -44t-20 -114q0 -69 20 -112.5t58 -43.5q41 0 63 40z"/>
<glyph glyph-name="ordfeminine" horiz-adv-x="304" unicode="ª" d="M192 535v17h-21q-67 0 -67 -57q0 -24 10.5 -36.5t25.5 -12.5q26 0 39 27.5t13 61.5zM248 408h-48q-4 21 -4 46h-1q-15 -55 -71 -55q-30 0 -52.5 22.5t-22.5 67.5q0 58 36 82.5t86 24.5h20v12q0 61 -48 61q-31 0 -55 -29l-29 38q35 43 90 43q52 0 74 -31.5t22 -92.5v-127 q0 -32 3 -62z"/>
<glyph glyph-name="guillemotleft" horiz-adv-x="362" unicode="«" d="M173 252l102 216l52 -28l-88 -188l88 -189l-52 -28zM34 252l103 216l52 -28l-88 -188l88 -189l-52 -28z"/>
<glyph glyph-name="logicalnot" horiz-adv-x="666" unicode="¬" d="M596 426v-287h-81v206h-445v81h526z"/>
<glyph glyph-name="uni00AD" horiz-adv-x="230" unicode="­" d="M194 231h-158v69h158v-69z"/>
<glyph glyph-name="registered" horiz-adv-x="480" unicode="®" d="M240 698q-64 0 -101.5 -55.5t-37.5 -143.5t37.5 -143.5t101.5 -55.5t101.5 55.5t37.5 143.5t-37.5 143.5t-101.5 55.5zM240 274q-76 0 -123 61t-47 164t47 164t123 61t123 -61t47 -164t-47 -164t-123 -61zM278 551q0 37 -34 37h-27v-76h26q35 0 35 39zM332 372h-52 l-38 102h-25v-102h-48v258h80q34 0 55.5 -19t21.5 -59q0 -55 -40 -68z"/>
<glyph glyph-name="macron" horiz-adv-x="235" unicode="¯" d="M246 614h-258v57h258v-57z"/>
<glyph glyph-name="degree" horiz-adv-x="320" unicode="°" d="M228 565q0 47 -19 78.5t-49 31.5t-49 -31.5t-19 -78.5q0 -49 19 -81t49 -32t49 32t19 81zM280 565q0 -66 -32.5 -114t-87.5 -48t-88 48t-33 114t33 112.5t88 46.5t87.5 -47t32.5 -112z"/>
<glyph glyph-name="plusminus" horiz-adv-x="666" unicode="±" d="M70 40v81h526v-81h-526zM70 338v81h223v150h81v-150h222v-81h-222v-147h-81v147h-223z"/>
<glyph glyph-name="twosuperior" horiz-adv-x="320" unicode="²" d="M289 595q0 -26 -11.5 -53t-22.5 -42.5t-36 -46.5l-93 -116h156v-65h-242v68l130 161q42 53 42 92q0 27 -12.5 44t-37.5 17q-47 0 -55 -62l-73 8q9 58 43.5 88.5t88.5 30.5q58 0 90.5 -34t32.5 -90z"/>
<glyph glyph-name="threesuperior" horiz-adv-x="320" unicode="³" d="M296 398q0 -59 -37 -96t-95 -37q-108 0 -134 100l67 17q16 -53 64 -53q30 0 46 21.5t16 50.5q0 34 -20.5 52.5t-54.5 18.5h-18v57h20q29 0 46.5 18.5t17.5 49.5q0 24 -13.5 42t-39.5 18q-37 0 -52 -41l-66 18q14 44 48 66t74 22q52 0 86 -31.5t34 -84.5q0 -38 -17.5 -66 t-48.5 -36v-1q35 -9 56 -37t21 -68z"/>
<glyph glyph-name="acute" horiz-adv-x="235" unicode="´" d="M235 715l-107 -144h-67l90 144h84z"/>
<glyph glyph-name="mu" horiz-adv-x="578" unicode="µ" d="M502 0h-89q-4 48 -4 78h-2q-19 -39 -62 -65t-93 -26q-55 0 -83 30v-257h-94v714h94v-262q0 -146 108 -146q57 0 92 43t35 113v252h94v-372q0 -61 4 -102z"/>
<glyph glyph-name="paragraph" horiz-adv-x="600" unicode="¶" d="M523 708v-834h-78v771h-115v-771h-79v453q-93 0 -152.5 52.5t-59.5 131.5q0 97 61.5 147t169.5 50h253z"/>
<glyph glyph-name="periodcentered" horiz-adv-x="228" unicode="·" d="M171 261q0 -25 -16.5 -42.5t-40.5 -17.5t-40 17t-16 43q0 25 16 43t40 18t40.5 -18t16.5 -43z"/>
<glyph glyph-name="cedilla" horiz-adv-x="235" unicode="¸" d="M154 0l-43 -72q8 3 30 3q31 0 54.5 -18t23.5 -54q0 -47 -34.5 -68t-79.5 -21q-52 0 -91 19l17 41q28 -14 68 -14q19 0 37.5 10t18.5 31q0 37 -47 37q-22 0 -41 -8l-19 17l58 97h48z"/>
<glyph glyph-name="onesuperior" horiz-adv-x="320" unicode="¹" d="M227 271h-75v352l-79 -54l-34 57l118 82h70v-437z"/>
<glyph glyph-name="ordmasculine" horiz-adv-x="304" unicode="º" d="M206 560q0 48 -13.5 78t-39.5 30q-52 0 -52 -108q0 -109 52 -109q26 0 39.5 30t13.5 79zM267 559q0 -72 -30.5 -116.5t-83.5 -44.5q-52 0 -82.5 44.5t-30.5 116.5q0 74 30 118.5t83 44.5t83.5 -44.5t30.5 -118.5z"/>
<glyph glyph-name="guillemotright" horiz-adv-x="362" unicode="»" d="M327 252l-102 -217l-52 28l88 189l-88 188l52 28zM189 252l-103 -217l-52 28l88 189l-88 188l52 28z"/>
<glyph glyph-name="onequarter" horiz-adv-x="740" unicode="¼" d="M227 271h-75v352l-79 -54l-34 57l118 82h70v-437zM534 722l-277 -745l-55 15l278 745zM575 157v210h-1l-98 -210h99zM691 94h-49v-94h-69v94h-165v66l136 277h98v-280h49v-63z"/>
<glyph glyph-name="onehalf" horiz-adv-x="740" unicode="½" d="M227 271h-75v352l-79 -54l-34 57l118 82h70v-437zM534 722l-277 -745l-55 15l278 745zM691 323q0 -26 -11.5 -53t-22.5 -42.5t-36 -46.5l-93 -116h156v-65h-242v68l130 161q42 53 42 92q0 27 -12.5 44t-37.5 17q-47 0 -55 -62l-73 8q9 58 43.5 88.5t88.5 30.5 q58 0 90.5 -34t32.5 -90z"/>
<glyph glyph-name="threequarters" horiz-adv-x="740" unicode="¾" d="M534 722l-277 -745l-55 15l278 745zM296 398q0 -59 -37 -96t-95 -37q-108 0 -134 100l67 17q16 -53 64 -53q30 0 46 21.5t16 50.5q0 34 -20.5 52.5t-54.5 18.5h-18v57h20q29 0 46.5 18.5t17.5 49.5q0 24 -13.5 42t-39.5 18q-37 0 -52 -41l-66 18q14 44 48 66t74 22 q52 0 86 -31.5t34 -84.5q0 -38 -17.5 -66t-48.5 -36v-1q35 -9 56 -37t21 -68zM575 157v210h-1l-98 -210h99zM691 94h-49v-94h-69v94h-165v66l136 277h98v-280h49v-63z"/>
<glyph glyph-name="questiondown" horiz-adv-x="381" unicode="¿" d="M134 462q0 25 16.5 42.5t40.5 17.5t40 -17t16 -43q0 -25 -16 -43t-40 -18t-40.5 18t-16.5 43zM157 261v36h77v-47q0 -88 -61 -148l-21 -24q-46 -53 -46 -104q0 -50 22 -78.5t61 -28.5t63 30.5t31 74.5l74 -15q-13 -75 -57.5 -120.5t-118.5 -45.5q-73 0 -117 46.5 t-44 129.5q0 56 21.5 93.5t63.5 78.5q31 33 41.5 58.5t10.5 63.5z"/>
<glyph glyph-name="Agrave" horiz-adv-x="487" unicode="À" d="M296 764h-67l-107 144h84zM333 237l-87 387h-4l-90 -387h181zM479 0h-94l-40 166h-205l-41 -166h-91l178 708h119z"/>
<glyph glyph-name="Aacute" horiz-adv-x="487" unicode="Á" d="M371 908l-107 -144h-67l90 144h84zM333 237l-87 387h-4l-90 -387h181zM479 0h-94l-40 166h-205l-41 -166h-91l178 708h119z"/>
<glyph glyph-name="Acircumflex" horiz-adv-x="487" unicode="Â" d="M390 764h-74l-71 101l-71 -101h-73l105 144h80zM333 237l-87 387h-4l-90 -387h181zM479 0h-94l-40 166h-205l-41 -166h-91l178 708h119z"/>
<glyph glyph-name="Atilde" horiz-adv-x="487" unicode="Ã" d="M383 882q-3 -50 -23.5 -78t-53.5 -28q-29 0 -65 24q-33 22 -55 22q-28 0 -34 -46h-45q3 49 23.5 77.5t53.5 28.5q29 0 66 -24q36 -23 56 -23q15 0 22.5 11t10.5 36h44zM333 237l-87 387h-4l-90 -387h181zM479 0h-94l-40 166h-205l-41 -166h-91l178 708h119z"/>
<glyph glyph-name="Adieresis" horiz-adv-x="487" unicode="Ä" d="M371 843q0 -22 -14 -37t-34 -15t-34.5 15t-14.5 37t14.5 37.5t34.5 15.5q21 0 34.5 -15.5t13.5 -37.5zM218 843q0 -22 -14.5 -37t-34.5 -15q-22 0 -35 14.5t-13 37.5q0 22 13.5 37.5t34.5 15.5q20 0 34.5 -15.5t14.5 -37.5zM333 237l-87 387h-4l-90 -387h181zM479 0h-94 l-40 166h-205l-41 -166h-91l178 708h119z"/>
<glyph glyph-name="Aring" horiz-adv-x="487" unicode="Å" d="M300 852q0 28 -15 47t-41 19q-25 0 -39.5 -19t-14.5 -47t14.5 -47t39.5 -19q26 0 41 19t15 47zM340 852q0 -44 -27.5 -73.5t-68.5 -29.5t-67.5 29.5t-26.5 73.5t26.5 73.5t67.5 29.5t68.5 -29.5t27.5 -73.5zM333 237l-87 387h-4l-90 -387h181zM479 0h-94l-40 166h-205 l-41 -166h-91l178 708h119z"/>
<glyph glyph-name="AE" horiz-adv-x="649" unicode="Æ" d="M315 237v393h-8l-136 -393h144zM609 0h-294v164h-168l-58 -164h-95l257 708h349v-80h-201v-223h186v-75h-186v-249h210v-81z"/>
<glyph glyph-name="Ccedilla" horiz-adv-x="486" unicode="Ç" d="M469 76q-54 -84 -151 -92l-33 -56q8 3 30 3q31 0 54.5 -18t23.5 -54q0 -47 -34.5 -68t-79.5 -21q-52 0 -91 19l17 41q28 -14 68 -14q19 0 37.5 10t18.5 31q0 37 -47 37q-22 0 -41 -8l-19 17l49 82q-104 12 -164 114t-60 255q0 163 68 266.5t183 103.5t173 -85l-56 -61 q-42 63 -113 63q-78 0 -119 -81t-41 -206q0 -124 42 -206t120 -82q70 0 111 69z"/>
<glyph glyph-name="Egrave" horiz-adv-x="426" unicode="È" d="M283 764h-67l-107 144h84zM386 0h-308v708h298v-80h-211v-223h197v-75h-197v-249h221v-81z"/>
<glyph glyph-name="Eacute" horiz-adv-x="426" unicode="É" d="M354 908l-107 -144h-67l90 144h84zM386 0h-308v708h298v-80h-211v-223h197v-75h-197v-249h221v-81z"/>
<glyph glyph-name="Ecircumflex" horiz-adv-x="426" unicode="Ê" d="M373 764h-74l-71 101l-71 -101h-73l105 144h80zM386 0h-308v708h298v-80h-211v-223h197v-75h-197v-249h221v-81z"/>
<glyph glyph-name="Edieresis" horiz-adv-x="426" unicode="Ë" d="M352 843q0 -22 -14 -37t-34 -15t-34.5 15t-14.5 37t14.5 37.5t34.5 15.5q21 0 34.5 -15.5t13.5 -37.5zM199 843q0 -22 -14.5 -37t-34.5 -15q-22 0 -35 14.5t-13 37.5q0 22 13.5 37.5t34.5 15.5q20 0 34.5 -15.5t14.5 -37.5zM386 0h-308v708h298v-80h-211v-223h197v-75 h-197v-249h221v-81z"/>
<glyph glyph-name="Igrave" horiz-adv-x="246" unicode="Ì" d="M166 764h-67l-107 144h84zM168 0h-90v708h90v-708z"/>
<glyph glyph-name="Iacute" horiz-adv-x="246" unicode="Í" d="M254 908l-107 -144h-67l90 144h84zM168 0h-90v708h90v-708z"/>
<glyph glyph-name="Icircumflex" horiz-adv-x="246" unicode="Î" d="M268 764h-74l-71 101l-71 -101h-73l105 144h80zM168 0h-90v708h90v-708z"/>
<glyph glyph-name="Idieresis" horiz-adv-x="246" unicode="Ï" d="M249 843q0 -22 -14 -37t-34 -15t-34.5 15t-14.5 37t14.5 37.5t34.5 15.5q21 0 34.5 -15.5t13.5 -37.5zM96 843q0 -22 -14.5 -37t-34.5 -15q-22 0 -35 14.5t-13 37.5q0 22 13.5 37.5t34.5 15.5q20 0 34.5 -15.5t14.5 -37.5zM168 0h-90v708h90v-708z"/>
<glyph glyph-name="Eth" horiz-adv-x="551" unicode="Ð" d="M167 395h133v-61h-133v-255h73q78 0 127 70.5t49 203.5q0 135 -48.5 205.5t-127.5 70.5h-73v-234zM78 334h-57v61h57v313h163q126 0 195.5 -92t69.5 -263q0 -170 -70 -261.5t-196 -91.5h-162v334z"/>
<glyph glyph-name="Ntilde" horiz-adv-x="573" unicode="Ñ" d="M424 882q-3 -50 -23.5 -78t-53.5 -28q-29 0 -65 24q-33 22 -55 22q-28 0 -34 -46h-45q3 49 23.5 77.5t53.5 28.5q29 0 66 -24q36 -23 56 -23q15 0 22.5 11t10.5 36h44zM495 0h-105l-226 549h-3v-549h-83v708h108l223 -550h3v550h83v-708z"/>
<glyph glyph-name="Ograve" horiz-adv-x="579" unicode="Ò" d="M334 764h-67l-107 144h84zM437 355q0 126 -38.5 207.5t-108.5 81.5q-71 0 -109.5 -81t-38.5 -208t38.5 -208t109.5 -81q70 0 108.5 81.5t38.5 207.5zM532 355q0 -168 -65 -270t-177 -102q-113 0 -178 102t-65 270q0 169 64 269.5t179 100.5q112 0 177 -101t65 -269z"/>
<glyph glyph-name="Oacute" horiz-adv-x="579" unicode="Ó" d="M427 908l-107 -144h-67l90 144h84zM437 355q0 126 -38.5 207.5t-108.5 81.5q-71 0 -109.5 -81t-38.5 -208t38.5 -208t109.5 -81q70 0 108.5 81.5t38.5 207.5zM532 355q0 -168 -65 -270t-177 -102q-113 0 -178 102t-65 270q0 169 64 269.5t179 100.5q112 0 177 -101 t65 -269z"/>
<glyph glyph-name="Ocircumflex" horiz-adv-x="579" unicode="Ô" d="M433 764h-74l-71 101l-71 -101h-73l105 144h80zM437 355q0 126 -38.5 207.5t-108.5 81.5q-71 0 -109.5 -81t-38.5 -208t38.5 -208t109.5 -81q70 0 108.5 81.5t38.5 207.5zM532 355q0 -168 -65 -270t-177 -102q-113 0 -178 102t-65 270q0 169 64 269.5t179 100.5 q112 0 177 -101t65 -269z"/>
<glyph glyph-name="Otilde" horiz-adv-x="579" unicode="Õ" d="M426 882q-3 -50 -23.5 -78t-53.5 -28q-29 0 -65 24q-33 22 -55 22q-28 0 -34 -46h-45q3 49 23.5 77.5t53.5 28.5q29 0 66 -24q36 -23 56 -23q15 0 22.5 11t10.5 36h44zM437 355q0 126 -38.5 207.5t-108.5 81.5q-71 0 -109.5 -81t-38.5 -208t38.5 -208t109.5 -81 q70 0 108.5 81.5t38.5 207.5zM532 355q0 -168 -65 -270t-177 -102q-113 0 -178 102t-65 270q0 169 64 269.5t179 100.5q112 0 177 -101t65 -269z"/>
<glyph glyph-name="Odieresis" horiz-adv-x="579" unicode="Ö" d="M413 843q0 -22 -14 -37t-34 -15t-34.5 15t-14.5 37t14.5 37.5t34.5 15.5q21 0 34.5 -15.5t13.5 -37.5zM260 843q0 -22 -14.5 -37t-34.5 -15q-22 0 -35 14.5t-13 37.5q0 22 13.5 37.5t34.5 15.5q20 0 34.5 -15.5t14.5 -37.5zM437 355q0 126 -38.5 207.5t-108.5 81.5 q-71 0 -109.5 -81t-38.5 -208t38.5 -208t109.5 -81q70 0 108.5 81.5t38.5 207.5zM532 355q0 -168 -65 -270t-177 -102q-113 0 -178 102t-65 270q0 169 64 269.5t179 100.5q112 0 177 -101t65 -269z"/>
<glyph glyph-name="multiply" horiz-adv-x="666" unicode="×" d="M162 531l171 -171l170 171l57 -56l-170 -171l172 -173l-59 -58l-171 170l-170 -170l-58 58l172 170l-171 174z"/>
<glyph glyph-name="Oslash" horiz-adv-x="579" unicode="Ø" d="M141 355q0 -107 25 -179l210 424q-38 46 -86 46q-72 0 -110.5 -81.5t-38.5 -209.5zM438 355q0 112 -31 191l-212 -427q38 -55 95 -55q71 0 109.5 82t38.5 209zM504 724l-46 -87q74 -100 74 -282q0 -168 -65 -270t-177 -102q-82 0 -140 55l-36 -74l-53 22l52 97 q-66 100 -66 272q0 169 64 269.5t179 100.5q73 0 129 -47l34 68z"/>
<glyph glyph-name="Ugrave" horiz-adv-x="557" unicode="Ù" d="M322 764h-67l-107 144h84zM489 243q0 -117 -50.5 -188.5t-161.5 -71.5q-110 0 -159.5 71.5t-49.5 188.5v465h90v-456q0 -186 121 -186q120 0 120 186v456h90v-465z"/>
<glyph glyph-name="Uacute" horiz-adv-x="557" unicode="Ú" d="M407 908l-107 -144h-67l90 144h84zM489 243q0 -117 -50.5 -188.5t-161.5 -71.5q-110 0 -159.5 71.5t-49.5 188.5v465h90v-456q0 -186 121 -186q120 0 120 186v456h90v-465z"/>
<glyph glyph-name="Ucircumflex" horiz-adv-x="557" unicode="Û" d="M426 764h-74l-71 101l-71 -101h-73l105 144h80zM489 243q0 -117 -50.5 -188.5t-161.5 -71.5q-110 0 -159.5 71.5t-49.5 188.5v465h90v-456q0 -186 121 -186q120 0 120 186v456h90v-465z"/>
<glyph glyph-name="Udieresis" horiz-adv-x="557" unicode="Ü" d="M406 843q0 -22 -14 -37t-34 -15t-34.5 15t-14.5 37t14.5 37.5t34.5 15.5q21 0 34.5 -15.5t13.5 -37.5zM253 843q0 -22 -14.5 -37t-34.5 -15q-22 0 -35 14.5t-13 37.5q0 22 13.5 37.5t34.5 15.5q20 0 34.5 -15.5t14.5 -37.5zM489 243q0 -117 -50.5 -188.5t-161.5 -71.5 q-110 0 -159.5 71.5t-49.5 188.5v465h90v-456q0 -186 121 -186q120 0 120 186v456h90v-465z"/>
<glyph glyph-name="Yacute" horiz-adv-x="437" unicode="Ý" d="M348 908l-107 -144h-67l90 144h84zM440 708l-178 -425v-283h-89v283l-176 425h98l123 -333l126 333h96z"/>
<glyph glyph-name="Thorn" horiz-adv-x="492" unicode="Þ" d="M167 477v-227h62q131 0 131 114q0 113 -130 113h-63zM78 0v708h89v-146h74q98 0 154 -50t56 -147q0 -103 -58 -151.5t-156 -48.5h-70v-165h-89z"/>
<glyph glyph-name="germandbls" horiz-adv-x="467" unicode="ß" d="M295 422v-1q59 -9 96 -62.5t37 -142.5q0 -99 -43.5 -161.5t-134.5 -62.5q-25 0 -51 6v72q19 -4 35 -4q57 0 84.5 43t27.5 112q0 74 -32 117t-91 43h-15v72h15q44 0 72.5 35.5t28.5 91.5q0 47 -20.5 80.5t-61.5 33.5q-91 0 -91 -171v-523h-83v522q0 246 176 246 q77 0 118 -51t41 -132q0 -64 -31.5 -108t-76.5 -55z"/>
<glyph glyph-name="agrave" horiz-adv-x="415" unicode="à" d="M249 571h-67l-107 144h84zM276 218v29h-37q-121 0 -121 -102q0 -43 19 -66t47 -23q47 0 69.5 50t22.5 112zM359 0h-70q-8 48 -8 83h-2q-22 -96 -118 -96q-49 0 -86 37.5t-37 111.5q0 42 13 74t33 51t48 31t54 16t55 4h33v22q0 112 -83 112q-56 0 -93 -51l-43 53 q24 33 64 52t80 19q83 0 118 -53t35 -158v-203q0 -63 7 -105z"/>
<glyph glyph-name="aacute" horiz-adv-x="415" unicode="á" d="M340 715l-107 -144h-67l90 144h84zM276 218v29h-37q-121 0 -121 -102q0 -43 19 -66t47 -23q47 0 69.5 50t22.5 112zM359 0h-70q-8 48 -8 83h-2q-22 -96 -118 -96q-49 0 -86 37.5t-37 111.5q0 42 13 74t33 51t48 31t54 16t55 4h33v22q0 112 -83 112q-56 0 -93 -51l-43 53 q24 33 64 52t80 19q83 0 118 -53t35 -158v-203q0 -63 7 -105z"/>
<glyph glyph-name="acircumflex" horiz-adv-x="415" unicode="â" d="M350 571h-74l-71 101l-71 -101h-73l105 144h80zM276 218v29h-37q-121 0 -121 -102q0 -43 19 -66t47 -23q47 0 69.5 50t22.5 112zM359 0h-70q-8 48 -8 83h-2q-22 -96 -118 -96q-49 0 -86 37.5t-37 111.5q0 42 13 74t33 51t48 31t54 16t55 4h33v22q0 112 -83 112 q-56 0 -93 -51l-43 53q24 33 64 52t80 19q83 0 118 -53t35 -158v-203q0 -63 7 -105z"/>
<glyph glyph-name="atilde" horiz-adv-x="415" unicode="ã" d="M346 689q-3 -50 -23.5 -78t-53.5 -28q-29 0 -65 24q-33 22 -55 22q-28 0 -34 -46h-45q3 49 23.5 77.5t53.5 28.5q29 0 66 -24q36 -23 56 -23q15 0 22.5 11t10.5 36h44zM276 218v29h-37q-121 0 -121 -102q0 -43 19 -66t47 -23q47 0 69.5 50t22.5 112zM359 0h-70 q-8 48 -8 83h-2q-22 -96 -118 -96q-49 0 -86 37.5t-37 111.5q0 42 13 74t33 51t48 31t54 16t55 4h33v22q0 112 -83 112q-56 0 -93 -51l-43 53q24 33 64 52t80 19q83 0 118 -53t35 -158v-203q0 -63 7 -105z"/>
<glyph glyph-name="adieresis" horiz-adv-x="415" unicode="ä" d="M176 650q0 -22 -14.5 -37t-34.5 -15q-22 0 -35 14.5t-13 37.5q0 22 13.5 37.5t34.5 15.5q20 0 34.5 -15.5t14.5 -37.5zM329 650q0 -22 -14 -37t-34 -15t-34.5 15t-14.5 37t14.5 37.5t34.5 15.5q21 0 34.5 -15.5t13.5 -37.5zM276 218v29h-37q-121 0 -121 -102 q0 -43 19 -66t47 -23q47 0 69.5 50t22.5 112zM359 0h-70q-8 48 -8 83h-2q-22 -96 -118 -96q-49 0 -86 37.5t-37 111.5q0 42 13 74t33 51t48 31t54 16t55 4h33v22q0 112 -83 112q-56 0 -93 -51l-43 53q24 33 64 52t80 19q83 0 118 -53t35 -158v-203q0 -63 7 -105z"/>
<glyph glyph-name="aring" horiz-adv-x="415" unicode="å" d="M263 659q0 28 -15 47t-41 19q-25 0 -39.5 -19t-14.5 -47t14.5 -47t39.5 -19q26 0 41 19t15 47zM303 659q0 -44 -27.5 -73.5t-68.5 -29.5t-67.5 29.5t-26.5 73.5t26.5 73.5t67.5 29.5t68.5 -29.5t27.5 -73.5zM276 218v29h-37q-121 0 -121 -102q0 -43 19 -66t47 -23 q47 0 69.5 50t22.5 112zM359 0h-70q-8 48 -8 83h-2q-22 -96 -118 -96q-49 0 -86 37.5t-37 111.5q0 42 13 74t33 51t48 31t54 16t55 4h33v22q0 112 -83 112q-56 0 -93 -51l-43 53q24 33 64 52t80 19q83 0 118 -53t35 -158v-203q0 -63 7 -105z"/>
<glyph glyph-name="ae" horiz-adv-x="665" unicode="æ" d="M537 298q0 68 -21.5 107.5t-63.5 39.5q-45 0 -69 -48t-24 -99h178zM276 203v29h-37q-52 0 -86.5 -21.5t-34.5 -71.5q0 -43 18.5 -63t47.5 -20q48 0 70 43.5t22 103.5zM454 519q87 0 128 -68t41 -181v-41h-266q1 -75 27 -122.5t74 -47.5q56 0 86 71l64 -37 q-45 -110 -153 -110q-115 0 -141 118q-24 -118 -149 -118q-51 0 -89 36.5t-38 111.5q0 40 13 71t33 48.5t48 28.5t54 15t55 4h33v21q0 58 -22.5 92.5t-60.5 34.5q-56 0 -93 -51l-43 53q24 33 64 52t80 19q103 0 124 -101q35 101 131 101z"/>
<glyph glyph-name="ccedilla" horiz-adv-x="344" unicode="ç" d="M339 29q-38 -43 -103 -46l-33 -55q8 3 30 3q31 0 54.5 -18t23.5 -54q0 -47 -34.5 -68t-79.5 -21q-52 0 -91 19l17 41q28 -14 68 -14q19 0 37.5 10t18.5 31q0 37 -47 37q-22 0 -41 -8l-19 17l50 84q-71 14 -108 84t-37 180q0 122 47.5 195t134.5 73q68 0 111 -43l-43 -64 q-28 31 -67 31q-46 0 -70.5 -52.5t-24.5 -139.5q0 -189 100 -189q42 0 68 33z"/>
<glyph glyph-name="egrave" horiz-adv-x="439" unicode="è" d="M285 571h-67l-107 144h84zM311 298q0 68 -21.5 107.5t-63.5 39.5q-32 0 -54 -26.5t-30.5 -58t-8.5 -62.5h178zM397 229h-266q1 -75 27 -122.5t74 -47.5q56 0 86 71l64 -37q-45 -110 -153 -110q-86 0 -135 71t-49 196q0 120 50.5 194.5t132.5 74.5q87 0 128 -68t41 -181 v-41z"/>
<glyph glyph-name="eacute" horiz-adv-x="439" unicode="é" d="M352 715l-107 -144h-67l90 144h84zM311 298q0 68 -21.5 107.5t-63.5 39.5q-32 0 -54 -26.5t-30.5 -58t-8.5 -62.5h178zM397 229h-266q1 -75 27 -122.5t74 -47.5q56 0 86 71l64 -37q-45 -110 -153 -110q-86 0 -135 71t-49 196q0 120 50.5 194.5t132.5 74.5q87 0 128 -68 t41 -181v-41z"/>
<glyph glyph-name="ecircumflex" horiz-adv-x="439" unicode="ê" d="M377 571h-74l-71 101l-71 -101h-73l105 144h80zM311 298q0 68 -21.5 107.5t-63.5 39.5q-32 0 -54 -26.5t-30.5 -58t-8.5 -62.5h178zM397 229h-266q1 -75 27 -122.5t74 -47.5q56 0 86 71l64 -37q-45 -110 -153 -110q-86 0 -135 71t-49 196q0 120 50.5 194.5t132.5 74.5 q87 0 128 -68t41 -181v-41z"/>
<glyph glyph-name="edieresis" horiz-adv-x="439" unicode="ë" d="M204 650q0 -22 -14.5 -37t-34.5 -15q-22 0 -35 14.5t-13 37.5q0 22 13.5 37.5t34.5 15.5q20 0 34.5 -15.5t14.5 -37.5zM357 650q0 -22 -14 -37t-34 -15t-34.5 15t-14.5 37t14.5 37.5t34.5 15.5q21 0 34.5 -15.5t13.5 -37.5zM311 298q0 68 -21.5 107.5t-63.5 39.5 q-32 0 -54 -26.5t-30.5 -58t-8.5 -62.5h178zM397 229h-266q1 -75 27 -122.5t74 -47.5q56 0 86 71l64 -37q-45 -110 -153 -110q-86 0 -135 71t-49 196q0 120 50.5 194.5t132.5 74.5q87 0 128 -68t41 -181v-41z"/>
<glyph glyph-name="igrave" horiz-adv-x="232" unicode="ì" d="M158 571h-67l-107 144h84zM158 0h-85v502h85v-502z"/>
<glyph glyph-name="iacute" horiz-adv-x="232" unicode="í" d="M248 715l-107 -144h-67l90 144h84zM158 0h-85v502h85v-502z"/>
<glyph glyph-name="icircumflex" horiz-adv-x="232" unicode="î" d="M261 571h-74l-71 101l-71 -101h-73l105 144h80zM158 0h-85v502h85v-502z"/>
<glyph glyph-name="idieresis" horiz-adv-x="232" unicode="ï" d="M87 650q0 -22 -14.5 -37t-34.5 -15q-22 0 -35 14.5t-13 37.5q0 22 13.5 37.5t34.5 15.5q20 0 34.5 -15.5t14.5 -37.5zM240 650q0 -22 -14 -37t-34 -15t-34.5 15t-14.5 37t14.5 37.5t34.5 15.5q21 0 34.5 -15.5t13.5 -37.5zM158 0h-85v502h85v-502z"/>
<glyph glyph-name="eth" horiz-adv-x="450" unicode="ð" d="M320 251q0 86 -24.5 140.5t-70.5 54.5t-70.5 -54.5t-24.5 -140.5t24.5 -140.5t70.5 -54.5t70.5 54.5t24.5 140.5zM404 249q0 -119 -49.5 -192.5t-130.5 -73.5q-82 0 -131.5 73.5t-49.5 194.5q0 115 47.5 187t126.5 72q38 0 63 -25l2 2q-36 87 -89 147l-96 -55l-35 38 l98 55q-30 35 -79 71l71 35q53 -46 78 -76l89 50l38 -37l-96 -53q56 -71 99.5 -183t43.5 -230z"/>
<glyph glyph-name="ntilde" horiz-adv-x="483" unicode="ñ" d="M380 689q-3 -50 -23.5 -78t-53.5 -28q-29 0 -65 24q-33 22 -55 22q-28 0 -34 -46h-45q3 49 23.5 77.5t53.5 28.5q29 0 66 -24q36 -23 56 -23q15 0 22.5 11t10.5 36h44zM414 0h-86v320q0 123 -71 123q-43 0 -70 -43.5t-27 -111.5v-288h-85v375q0 78 -4 127h81q6 -50 6 -87 h2q15 46 48 75t78 29q39 0 65.5 -16.5t39.5 -46.5t18 -62.5t5 -73.5v-320z"/>
<glyph glyph-name="ograve" horiz-adv-x="455" unicode="ò" d="M273 571h-67l-107 144h84zM322 251q0 87 -24 140.5t-71 53.5t-70.5 -53.5t-23.5 -140.5q0 -86 23.5 -139.5t70.5 -53.5t71 53t24 140zM410 250q0 -121 -49 -194t-134 -73q-84 0 -133 73.5t-49 193.5q0 122 48.5 195.5t133.5 73.5t134 -73.5t49 -195.5z"/>
<glyph glyph-name="oacute" horiz-adv-x="455" unicode="ó" d="M345 715l-107 -144h-67l90 144h84zM322 251q0 87 -24 140.5t-71 53.5t-70.5 -53.5t-23.5 -140.5q0 -86 23.5 -139.5t70.5 -53.5t71 53t24 140zM410 250q0 -121 -49 -194t-134 -73q-84 0 -133 73.5t-49 193.5q0 122 48.5 195.5t133.5 73.5t134 -73.5t49 -195.5z"/>
<glyph glyph-name="ocircumflex" horiz-adv-x="455" unicode="ô" d="M372 571h-74l-71 101l-71 -101h-73l105 144h80zM322 251q0 87 -24 140.5t-71 53.5t-70.5 -53.5t-23.5 -140.5q0 -86 23.5 -139.5t70.5 -53.5t71 53t24 140zM410 250q0 -121 -49 -194t-134 -73q-84 0 -133 73.5t-49 193.5q0 122 48.5 195.5t133.5 73.5t134 -73.5 t49 -195.5z"/>
<glyph glyph-name="otilde" horiz-adv-x="455" unicode="õ" d="M365 689q-3 -50 -23.5 -78t-53.5 -28q-29 0 -65 24q-33 22 -55 22q-28 0 -34 -46h-45q3 49 23.5 77.5t53.5 28.5q29 0 66 -24q36 -23 56 -23q15 0 22.5 11t10.5 36h44zM322 251q0 87 -24 140.5t-71 53.5t-70.5 -53.5t-23.5 -140.5q0 -86 23.5 -139.5t70.5 -53.5t71 53 t24 140zM410 250q0 -121 -49 -194t-134 -73q-84 0 -133 73.5t-49 193.5q0 122 48.5 195.5t133.5 73.5t134 -73.5t49 -195.5z"/>
<glyph glyph-name="odieresis" horiz-adv-x="455" unicode="ö" d="M199 650q0 -22 -14.5 -37t-34.5 -15q-22 0 -35 14.5t-13 37.5q0 22 13.5 37.5t34.5 15.5q20 0 34.5 -15.5t14.5 -37.5zM352 650q0 -22 -14 -37t-34 -15t-34.5 15t-14.5 37t14.5 37.5t34.5 15.5q21 0 34.5 -15.5t13.5 -37.5zM322 251q0 87 -24 140.5t-71 53.5t-70.5 -53.5 t-23.5 -140.5q0 -86 23.5 -139.5t70.5 -53.5t71 53t24 140zM410 250q0 -121 -49 -194t-134 -73q-84 0 -133 73.5t-49 193.5q0 122 48.5 195.5t133.5 73.5t134 -73.5t49 -195.5z"/>
<glyph glyph-name="divide" horiz-adv-x="666" unicode="÷" d="M398 469q0 -27 -19 -46t-46 -19t-46 19t-19 46q0 26 19 45.5t46 19.5t46 -19.5t19 -45.5zM398 132q0 -27 -19 -46t-46 -19t-46 19t-19 46q0 26 19 45.5t46 19.5t46 -19.5t19 -45.5zM596 344v-82h-526v82h526z"/>
<glyph glyph-name="oslash" horiz-adv-x="455" unicode="ø" d="M325 251q0 67 -14 115l-143 -276q23 -35 59 -35q49 0 73.5 54t24.5 142zM130 251q0 -75 15 -118l143 283q-20 32 -61 32q-48 0 -72.5 -54t-24.5 -143zM398 525l-39 -76q51 -77 51 -199q0 -121 -49 -194t-134 -73q-54 0 -96 37l-29 -57l-40 22l37 68q-54 69 -54 197 q0 122 48.5 195.5t133.5 73.5q58 0 99 -37l31 62z"/>
<glyph glyph-name="ugrave" horiz-adv-x="483" unicode="ù" d="M280 571h-67l-107 144h84zM69 502h86v-320q0 -123 71 -123q43 0 70 43.5t27 111.5v288h85v-375q0 -78 4 -127h-81q-6 50 -6 87h-2q-15 -46 -48 -75t-78 -29q-39 0 -65.5 16.5t-39.5 46.5t-18 62.5t-5 73.5v320z"/>
<glyph glyph-name="uacute" horiz-adv-x="483" unicode="ú" d="M359 715l-107 -144h-67l90 144h84zM69 502h86v-320q0 -123 71 -123q43 0 70 43.5t27 111.5v288h85v-375q0 -78 4 -127h-81q-6 50 -6 87h-2q-15 -46 -48 -75t-78 -29q-39 0 -65.5 16.5t-39.5 46.5t-18 62.5t-5 73.5v320z"/>
<glyph glyph-name="ucircumflex" horiz-adv-x="483" unicode="û" d="M386 571h-74l-71 101l-71 -101h-73l105 144h80zM69 502h86v-320q0 -123 71 -123q43 0 70 43.5t27 111.5v288h85v-375q0 -78 4 -127h-81q-6 50 -6 87h-2q-15 -46 -48 -75t-78 -29q-39 0 -65.5 16.5t-39.5 46.5t-18 62.5t-5 73.5v320z"/>
<glyph glyph-name="udieresis" horiz-adv-x="483" unicode="ü" d="M213 650q0 -22 -14.5 -37t-34.5 -15q-22 0 -35 14.5t-13 37.5q0 22 13.5 37.5t34.5 15.5q20 0 34.5 -15.5t14.5 -37.5zM366 650q0 -22 -14 -37t-34 -15t-34.5 15t-14.5 37t14.5 37.5t34.5 15.5q21 0 34.5 -15.5t13.5 -37.5zM69 502h86v-320q0 -123 71 -123q43 0 70 43.5 t27 111.5v288h85v-375q0 -78 4 -127h-81q-6 50 -6 87h-2q-15 -46 -48 -75t-78 -29q-39 0 -65.5 16.5t-39.5 46.5t-18 62.5t-5 73.5v320z"/>
<glyph glyph-name="yacute" horiz-adv-x="396" unicode="ý" d="M330 715l-107 -144h-67l90 144h84zM382 502l-155 -593q-20 -74 -51.5 -111.5t-90.5 -37.5q-33 0 -59 8l11 77q19 -7 40 -7q27 0 42 17t24 51l19 79l-148 517h90l99 -402h2l90 402h87z"/>
<glyph glyph-name="thorn" horiz-adv-x="480" unicode="þ" d="M156 252q0 -85 25.5 -139.5t71.5 -54.5q47 0 70.5 53.5t23.5 140.5q0 86 -23.5 139.5t-70.5 53.5t-72 -54t-25 -139zM73 756h83v-332h2q28 95 117 95q75 0 117.5 -75t42.5 -195t-41.5 -193t-118.5 -73q-42 0 -72.5 25t-42.5 65h-2v-313h-85v996z"/>
</font>
</defs>
</svg>
